<svg id="visual" viewBox="0 0 900 600" width="900" height="600" xmlns="http://www.w3.org/2000/svg" xmlns:xlink="http://www.w3.org/1999/xlink" version="1.1"><rect x="0" y="0" width="900" height="600" fill="#dddbdb"></rect><g transform="translate(849.8387766404393 94.13290009572319)"><path d="M130.3 -232.9C210.5 -179.3 346 -228.6 419 -207C492 -185.3 502.5 -92.7 494.4 -4.7C486.3 83.3 459.7 166.7 412.5 233.1C365.3 299.5 297.7 348.9 225.5 347.7C153.3 346.6 76.7 294.8 1.7 291.9C-73.3 289 -146.7 335 -229.9 342.6C-313.2 350.2 -406.5 319.4 -395.5 255.8C-384.5 192.3 -269.2 96.2 -264.3 2.8C-259.4 -90.5 -364.8 -181 -386.8 -263.4C-408.7 -345.8 -347.1 -420.2 -268.7 -474.9C-190.3 -529.7 -95.2 -564.8 -35.1 -504.1C25 -443.3 50 -286.6 130.3 -232.9" fill="#BB004B"></path></g></svg>