<svg id="visual" viewBox="0 0 900 600" width="900" height="600" xmlns="http://www.w3.org/2000/svg" xmlns:xlink="http://www.w3.org/1999/xlink" version="1.1"><rect x="0" y="0" width="900" height="600" fill="#cd3838"></rect><path d="M0 325L75 412L150 317L225 334L300 352L375 297L450 382L525 318L600 358L675 297L750 365L825 373L900 358L900 601L825 601L750 601L675 601L600 601L525 601L450 601L375 601L300 601L225 601L150 601L75 601L0 601Z" fill="#edc408"></path><path d="M0 407L75 385L150 366L225 436L300 322L375 332L450 434L525 388L600 375L675 389L750 430L825 319L900 383L900 601L825 601L750 601L675 601L600 601L525 601L450 601L375 601L300 601L225 601L150 601L75 601L0 601Z" fill="#efb003"></path><path d="M0 357L75 408L150 427L225 378L300 389L375 399L450 374L525 437L600 440L675 398L750 409L825 433L900 462L900 601L825 601L750 601L675 601L600 601L525 601L450 601L375 601L300 601L225 601L150 601L75 601L0 601Z" fill="#ef9b0c"></path><path d="M0 450L75 406L150 447L225 438L300 428L375 407L450 446L525 408L600 417L675 423L750 483L825 449L900 419L900 601L825 601L750 601L675 601L600 601L525 601L450 601L375 601L300 601L225 601L150 601L75 601L0 601Z" fill="#ed8718"></path><path d="M0 489L75 507L150 434L225 461L300 487L375 470L450 490L525 474L600 436L675 439L750 492L825 482L900 474L900 601L825 601L750 601L675 601L600 601L525 601L450 601L375 601L300 601L225 601L150 601L75 601L0 601Z" fill="#e87322"></path><path d="M0 525L75 530L150 473L225 474L300 525L375 464L450 511L525 500L600 481L675 518L750 471L825 532L900 512L900 601L825 601L750 601L675 601L600 601L525 601L450 601L375 601L300 601L225 601L150 601L75 601L0 601Z" fill="#e15f2a"></path><path d="M0 504L75 531L150 554L225 501L300 525L375 505L450 504L525 546L600 503L675 531L750 519L825 504L900 541L900 601L825 601L750 601L675 601L600 601L525 601L450 601L375 601L300 601L225 601L150 601L75 601L0 601Z" fill="#d84c32"></path><path d="M0 582L75 572L150 557L225 551L300 569L375 579L450 580L525 549L600 549L675 565L750 555L825 549L900 539L900 601L825 601L750 601L675 601L600 601L525 601L450 601L375 601L300 601L225 601L150 601L75 601L0 601Z" fill="#cd3838"></path></svg>