<svg id="visual" viewBox="0 0 900 600" width="900" height="600" xmlns="http://www.w3.org/2000/svg" xmlns:xlink="http://www.w3.org/1999/xlink" version="1.1"><path d="M369 0L354.8 14.3C340.7 28.7 312.3 57.3 292.5 85.8C272.7 114.3 261.3 142.7 265.7 171.2C270 199.7 290 228.3 310.7 257C331.3 285.7 352.7 314.3 339.3 343C326 371.7 278 400.3 275 428.8C272 457.3 314 485.7 325.8 514.2C337.7 542.7 319.3 571.3 310.2 585.7L301 600L0 600L0 585.7C0 571.3 0 542.7 0 514.2C0 485.7 0 457.3 0 428.8C0 400.3 0 371.7 0 343C0 314.3 0 285.7 0 257C0 228.3 0 199.7 0 171.2C0 142.7 0 114.3 0 85.8C0 57.3 0 28.7 0 14.3L0 0Z" fill="#f49324"></path><path d="M294 0L292.5 14.3C291 28.7 288 57.3 269.3 85.8C250.7 114.3 216.3 142.7 211.5 171.2C206.7 199.7 231.3 228.3 248.8 257C266.3 285.7 276.7 314.3 269.2 343C261.7 371.7 236.3 400.3 233.7 428.8C231 457.3 251 485.7 247 514.2C243 542.7 215 571.3 201 585.7L187 600L0 600L0 585.7C0 571.3 0 542.7 0 514.2C0 485.7 0 457.3 0 428.8C0 400.3 0 371.7 0 343C0 314.3 0 285.7 0 257C0 228.3 0 199.7 0 171.2C0 142.7 0 114.3 0 85.8C0 57.3 0 28.7 0 14.3L0 0Z" fill="#ee7c28"></path><path d="M161 0L163 14.3C165 28.7 169 57.3 178.8 85.8C188.7 114.3 204.3 142.7 211.5 171.2C218.7 199.7 217.3 228.3 209.2 257C201 285.7 186 314.3 188 343C190 371.7 209 400.3 221 428.8C233 457.3 238 485.7 237.3 514.2C236.7 542.7 230.3 571.3 227.2 585.7L224 600L0 600L0 585.7C0 571.3 0 542.7 0 514.2C0 485.7 0 457.3 0 428.8C0 400.3 0 371.7 0 343C0 314.3 0 285.7 0 257C0 228.3 0 199.7 0 171.2C0 142.7 0 114.3 0 85.8C0 57.3 0 28.7 0 14.3L0 0Z" fill="#e5652d"></path><path d="M104 0L108.7 14.3C113.3 28.7 122.7 57.3 131 85.8C139.3 114.3 146.7 142.7 144.2 171.2C141.7 199.7 129.3 228.3 122.7 257C116 285.7 115 314.3 121.5 343C128 371.7 142 400.3 146.2 428.8C150.3 457.3 144.7 485.7 143 514.2C141.3 542.7 143.7 571.3 144.8 585.7L146 600L0 600L0 585.7C0 571.3 0 542.7 0 514.2C0 485.7 0 457.3 0 428.8C0 400.3 0 371.7 0 343C0 314.3 0 285.7 0 257C0 228.3 0 199.7 0 171.2C0 142.7 0 114.3 0 85.8C0 57.3 0 28.7 0 14.3L0 0Z" fill="#da4e32"></path><path d="M107 0L99.8 14.3C92.7 28.7 78.3 57.3 74 85.8C69.7 114.3 75.3 142.7 83 171.2C90.7 199.7 100.3 228.3 101.5 257C102.7 285.7 95.3 314.3 86.2 343C77 371.7 66 400.3 61.2 428.8C56.3 457.3 57.7 485.7 61 514.2C64.3 542.7 69.7 571.3 72.3 585.7L75 600L0 600L0 585.7C0 571.3 0 542.7 0 514.2C0 485.7 0 457.3 0 428.8C0 400.3 0 371.7 0 343C0 314.3 0 285.7 0 257C0 228.3 0 199.7 0 171.2C0 142.7 0 114.3 0 85.8C0 57.3 0 28.7 0 14.3L0 0Z" fill="#cc3737"></path></svg>