<svg id="visual" viewBox="0 0 900 600" width="900" height="600" xmlns="http://www.w3.org/2000/svg" xmlns:xlink="http://www.w3.org/1999/xlink" version="1.1"><path d="M0 396L15 402.5C30 409 60 422 90 437.5C120 453 150 471 180 440.2C210 409.3 240 329.7 270 313.3C300 297 330 344 360 331.3C390 318.7 420 246.3 450 260C480 273.7 510 373.3 540 391.3C570 409.3 600 345.7 630 340.5C660 335.3 690 388.7 720 404C750 419.3 780 396.7 810 398.3C840 400 870 426 885 439L900 452" fill="none" stroke-linecap="round" stroke-linejoin="miter" stroke="#edc408" stroke-width="99"></path></svg>