<svg id="visual" viewBox="0 0 900 600" width="900" height="600" xmlns="http://www.w3.org/2000/svg" xmlns:xlink="http://www.w3.org/1999/xlink" version="1.1"><rect x="0" y="0" width="900" height="600" fill="#dddbdb"></rect><path d="M0 154L15 174.3C30 194.7 60 235.3 90 235.8C120 236.3 150 196.7 180 179.3C210 162 240 167 270 189.5C300 212 330 252 360 242.2C390 232.3 420 172.7 450 172.3C480 172 510 231 540 262.5C570 294 600 298 630 280.2C660 262.3 690 222.7 720 221.2C750 219.7 780 256.3 810 269.5C840 282.7 870 272.3 885 267.2L900 262L900 0L885 0C870 0 840 0 810 0C780 0 750 0 720 0C690 0 660 0 630 0C600 0 570 0 540 0C510 0 480 0 450 0C420 0 390 0 360 0C330 0 300 0 270 0C240 0 210 0 180 0C150 0 120 0 90 0C60 0 30 0 15 0L0 0Z" fill="#ff9603" stroke-linecap="round" stroke-linejoin="miter"></path></svg>