<svg id="visual" viewBox="0 0 900 600" width="900" height="600" xmlns="http://www.w3.org/2000/svg" xmlns:xlink="http://www.w3.org/1999/xlink" version="1.1"><rect x="0" y="0" width="900" height="600" fill="#001220"></rect><defs><linearGradient id="grad1_0" x1="33.3%" y1="0%" x2="100%" y2="100%"><stop offset="20%" stop-color="#001220" stop-opacity="1"></stop><stop offset="80%" stop-color="#001220" stop-opacity="1"></stop></linearGradient></defs><defs><linearGradient id="grad2_0" x1="0%" y1="0%" x2="66.7%" y2="100%"><stop offset="20%" stop-color="#001220" stop-opacity="1"></stop><stop offset="80%" stop-color="#001220" stop-opacity="1"></stop></linearGradient></defs><g transform="translate(900, 0)"><path d="M0 378.6C-60.2 386.8 -120.5 395 -144.9 349.8C-169.3 304.5 -157.9 205.8 -154.1 154.1C-150.4 102.5 -154.4 97.8 -193.1 80C-231.8 62.1 -305.2 31.1 -378.6 0L0 0Z" fill="#ff9603"></path></g><g transform="translate(0, 600)"><path d="M0 -378.6C28.5 -325 57 -271.3 108.3 -261.5C159.6 -251.6 233.6 -285.4 267.7 -267.7C301.8 -250 295.8 -180.6 307.7 -127.4C319.5 -74.2 349 -37.1 378.6 0L0 0Z" fill="#ff9603"></path></g></svg>